<svg width="32" height="29" viewBox="0 0 32 29" fill="none" xmlns="http://www.w3.org/2000/svg">
<path d="M0 3.55556C0 1.59444 1.59444 0 3.55556 0H12.4444V7.11111C12.4444 8.09444 13.2389 8.88889 14.2222 8.88889H21.3333V15.8722L16.5111 20.6944C15.9389 21.2667 15.5389 21.9778 15.3444 22.7611L14.3056 26.9222C14.1778 27.4333 14.2056 27.9667 14.3778 28.45H3.55556C1.59444 28.45 0 26.8556 0 24.8944V3.55556ZM21.3333 7.11111H14.2222V0L21.3333 7.11111ZM30.5444 13.0944L31.3444 13.8944C32.2111 14.7611 32.2111 16.1667 31.3444 17.0389L29.7111 18.6722L25.7667 14.7278L27.4 13.0944C28.2667 12.2278 29.6722 12.2278 30.5444 13.0944ZM17.3278 23.1667L24.5056 15.9889L28.45 19.9333L21.2722 27.1056C21.0444 27.3333 20.7611 27.4944 20.4444 27.5722L17.1056 28.4056C16.8 28.4833 16.4833 28.3944 16.2611 28.1722C16.0389 27.95 15.95 27.6333 16.0278 27.3278L16.8611 23.9889C16.9389 23.6778 17.1 23.3889 17.3278 23.1611V23.1667Z" fill="white"/>
</svg>
