<svg width="32" height="33" viewBox="0 0 32 33" fill="none" xmlns="http://www.w3.org/2000/svg">
<path d="M0 16.1875C0 20.4807 1.68571 24.598 4.68629 27.6338C7.68687 30.6695 11.7565 32.375 16 32.375C20.2435 32.375 24.3131 30.6695 27.3137 27.6338C30.3143 24.598 32 20.4807 32 16.1875C32 11.8943 30.3143 7.77695 27.3137 4.74121C24.3131 1.70546 20.2435 0 16 0C11.7565 0 7.68687 1.70546 4.68629 4.74121C1.68571 7.77695 0 11.8943 0 16.1875ZM18.4125 8.5427L24.6562 15.3149C24.875 15.5552 25 15.865 25 16.1875C25 16.51 24.875 16.8261 24.6562 17.0601L18.4125 23.8323C18.15 24.1168 17.7812 24.2812 17.3937 24.2812C16.625 24.2812 16 23.6489 16 22.8712V19.2227H10C8.89375 19.2227 8 18.3184 8 17.1992V15.1758C8 14.0566 8.89375 13.1523 10 13.1523H16V9.50383C16 8.72607 16.625 8.09375 17.3937 8.09375C17.7812 8.09375 18.15 8.25815 18.4125 8.5427Z" fill="white"/>
</svg>
