<svg width="32" height="33" viewBox="0 0 32 33" fill="none" xmlns="http://www.w3.org/2000/svg">
<path d="M32 16.1875C32 11.8943 30.3143 7.77695 27.3137 4.74121C24.3131 1.70546 20.2435 0 16 0C11.7565 0 7.68687 1.70546 4.68629 4.74121C1.68571 7.77695 0 11.8943 0 16.1875C0 20.4807 1.68571 24.598 4.68629 27.6338C7.68687 30.6695 11.7565 32.375 16 32.375C20.2435 32.375 24.3131 30.6695 27.3137 27.6338C30.3143 24.598 32 20.4807 32 16.1875ZM13.5875 23.8323L7.34375 17.0601C7.125 16.8198 7 16.51 7 16.1875C7 15.865 7.125 15.5489 7.34375 15.3149L13.5875 8.5427C13.85 8.25815 14.2188 8.09375 14.6062 8.09375C15.375 8.09375 16 8.72607 16 9.50383V13.1523H22C23.1063 13.1523 24 14.0566 24 15.1758V17.1992C24 18.3184 23.1063 19.2227 22 19.2227H16V22.8712C16 23.6489 15.375 24.2812 14.6062 24.2812C14.2188 24.2812 13.85 24.1168 13.5875 23.8323Z" fill="white"/>
</svg>
